<?xml version="1.0" encoding="UTF-8"?>
<svg id="Layer_1" xmlns="http://www.w3.org/2000/svg" version="1.1" xmlns:xlink="http://www.w3.org/1999/xlink" viewBox="0 0 145.03 164.32">
  <!-- Generator: Adobe Illustrator 29.3.1, SVG Export Plug-In . SVG Version: 2.1.0 Build 151)  -->
  <defs>
    <style>
      .st0 {
        fill: url(#linear-gradient2);
      }

      .st1 {
        fill: url(#linear-gradient1);
      }

      .st2 {
        fill: url(#linear-gradient4);
      }

      .st3 {
        fill: url(#linear-gradient5);
      }

      .st4 {
        fill: url(#linear-gradient3);
      }

      .st5 {
        fill: url(#linear-gradient);
      }
    </style>
    <linearGradient id="linear-gradient" x1="109.25" y1="-4.47" x2="14.98" y2="125.37" gradientUnits="userSpaceOnUse">
      <stop offset="0" stop-color="#03b2dd"/>
      <stop offset="1" stop-color="#2a13a1"/>
    </linearGradient>
    <linearGradient id="linear-gradient1" x1="152.2" y1="26.73" x2="57.94" y2="156.56" xlink:href="#linear-gradient"/>
    <linearGradient id="linear-gradient2" x1="171.09" y1="40.44" x2="76.83" y2="170.27" xlink:href="#linear-gradient"/>
    <linearGradient id="linear-gradient3" x1="49.82" y1="54.01" x2="5.79" y2="114.65" xlink:href="#linear-gradient"/>
    <linearGradient id="linear-gradient4" x1="105.6" y1="-7.11" x2="11.34" y2="122.73" xlink:href="#linear-gradient"/>
    <linearGradient id="linear-gradient5" x1="89.64" y1="-18.7" x2="-4.63" y2="111.13" xlink:href="#linear-gradient"/>
  </defs>
  <path class="st5" d="M103.12,83.95c-.9-3.08-.59-6.07,1.25-9.01-7.17.74-13.86-.38-20.41-2.54-.79-.26-1.63-.36-2.67-.58.24.62.38,1,.53,1.37.76,1.87,1.5,3.75,2.3,5.6.35.81.21,1.37-.5,1.9-1.48,1.12-2.89,2.33-4.38,3.43-.6.45-.71.89-.49,1.56.64,1.96,1.03,4.02,1.9,5.87,1.32,2.83.79,4.82-1.76,6.65-2.1,1.5-3.86,3.46-5.82,5.15-.33.28-1,.4-1.42.28-.31-.08-.67-.71-.64-1.06.04-.42.42-.87.75-1.2,1.9-1.94,3.78-3.91,5.78-5.74.85-.78.8-1.46.49-2.4-.92-2.77-1.75-5.57-2.68-8.34-.26-.77-.04-1.24.51-1.7,1.09-.88,2.12-1.83,3.27-2.64,1.17-.82,2.21-1.59,1.44-3.24-.06-.14-.02-.33,0-.49.33-2.62,1.23-5.23-.2-7.81.43-.15.66-.23.89-.32,7.46-2.68,12.7-7.61,15.18-15.23.35-1.04.72-1.56,1.86-1.81,3.88-.85,6.59-3.82,6.66-7.27.08-4.2.08-8.4,0-12.6-.05-3.05-2.11-6.03-5.05-6.78-2.02-.52-2.69-1.56-3.3-3.45-3.13-9.59-9.89-15.7-19.31-18.79-10.94-3.6-22.03-3.68-33.03-.23-10.62,3.32-17.95,10.06-20.95,21.06-.09.34-.61.72-.99.8-4.08.8-6.75,3.9-6.79,8.06-.03,3.75-.04,7.49,0,11.24.04,4.05,2.75,7.29,6.75,7.95,1.12.18,1.56.63,1.9,1.66,2.06,6.23,6.01,10.88,11.9,13.83,1.35.68,2.75,1.23,4.28,1.92-1.33,2.11-.71,4.31-.5,6.5.09.9-.06,1.81.02,2.71.04.5.2,1.11.54,1.42,1.26,1.18,2.6,2.28,3.96,3.34.78.61,1.04,1.19.71,2.2-.9,2.78-1.65,5.6-2.51,8.39-.25.82-.08,1.38.52,1.97,1.97,1.93,3.89,3.91,5.83,5.87.6.6,1.04,1.27.3,2.03-.74.74-1.38.17-1.93-.33-2.58-2.35-5.17-4.7-7.7-7.13-.33-.32-.5-1.11-.37-1.59.81-2.93,1.7-5.84,2.64-8.73.23-.73.07-1.14-.51-1.56-1.13-.82-2.23-1.68-3.33-2.55-2.02-1.59-2.01-1.59-1.14-3.94.68-1.82,1.34-3.64,2.1-5.69-.95.4-1.68.67-2.37,1-3.81,1.8-5.99,5.11-8.09,8.56-2.15,3.55-4.4,7.06-6.91,10.35-1.81,2.36-4.11,4.34-6.15,6.44,5.73,2.06,9,8.03,7.17,14.92,4.71-2.82,8-6.85,11.4-11.12v1.41c.01,5.56.03,11.12.01,16.68,0,1.23.32,2.1,1.61,2.57,4.96,1.77,9.9,3.59,14.83,5.46.98.37,1.68.22,2.46-.43,2.39-2,4.83-3.95,7.28-5.94.27.2.5.37.72.54,2.19,1.81,4.35,3.65,6.59,5.39.48.38,1.34.71,1.85.54,5.06-1.72,10.1-3.52,15.13-5.34,1.83-.66,1.94-.92,1.94-2.91,0-9.51.01-19.02.01-28.53,0-.43.06-.85.07-1.03,3.88.52,7.6,1.14,11.35,1.51,3.51.33,9.47-.26,11.11-1.28-2.93-1.45-4.97-3.67-5.89-6.8ZM98.05,29.1c1.58.43,2.46,1.41,2.48,2.86.06,3.9.1,7.81.09,11.71-.01,1.7-.84,2.71-2.57,3.25v-17.82ZM22.5,46.89c-1.41-.35-2.43-1.41-2.45-2.85-.07-4.07-.07-8.14-.01-12.21.01-1.43.97-2.27,2.46-2.88v17.94ZM52.19,5.24c5.41-.7,10.69-.67,16.14-.03v2.83c0,3.09.02,6.17,0,9.26-.02,2.59-1,4.08-3.58,4.33-3.04.31-6.15.25-9.2.02-2.05-.16-3.21-1.73-3.35-3.68-.02-.33-.01-.66-.01-.99V5.24ZM74.87,26.23c4.24-.72,7.64,1.5,8.56,5.72.57,2.6.69,5.29,1,7.81-.23,2.05-.23,3.98-.69,5.79-1.04,4.11-4.01,6.41-7.91,7.55-6.11,1.8-12.39,2.21-18.71,1.89-4.4-.23-8.78-.72-12.98-2.16-4.8-1.63-7.56-5.02-7.74-10.06-.12-3.43.12-6.93.7-10.31.84-4.92,4.58-7.17,9.48-6.11,3.98.85,7.95,1.79,11.94,2.58,2.78.55,5.48-.27,8.17-.87,2.73-.6,5.43-1.36,8.18-1.83ZM40.24,64.03c-8.06-2.97-13.11-10.18-13.16-18.76-.03-5.11.04-10.21,0-15.32-.08-8.8,4.13-15.2,11.19-19.96,2.79-1.88,5.89-3.08,9.18-3.74.07.09.15.15.16.21.17,2.29.17,2.31-1.98,2.91-5.62,1.59-10.1,4.73-13.19,9.73-1.61,2.61-2.44,5.48-2.45,8.55-.03,6.22.09,12.44-.01,18.66-.09,5.86,3.49,12.85,11.21,14.92,12.98,3.49,25.98,3.55,38.89-.16,6.55-1.88,10.49-7.55,10.53-14.38.04-6.38.1-12.76-.04-19.14-.15-6.84-3.66-11.85-9.28-15.38-1.95-1.23-4.23-1.99-6.42-2.78-2.07-.73-2.22-.81-1.81-3.23.72.18,1.44.32,2.13.54,7.54,2.41,13.42,6.85,16.57,14.25.98,2.3,1.56,4.91,1.65,7.4.23,6.13.4,12.29,0,18.4-.55,8.32-4.88,14.25-12.75,17.34-5.56,2.18-11.41,2.84-17.31,3.03-7.86.25-15.63-.35-23.1-3.09ZM60.32,116.96c-1.52.01-2.7-1.11-2.74-2.59-.03-1.41,1.23-2.67,2.68-2.66,1.46,0,2.65,1.22,2.64,2.7-.01,1.48-1.08,2.55-2.58,2.55ZM60.39,106.82c-.43-.62-.77-1.05-1.06-1.51-3.47-5.49-5.97-11.45-8.35-17.45-2.2-5.54-4.15-11.18-6.21-16.77-.08-.23-.12-.48-.22-.88,1.1.19,2.13.39,3.15.54,2.24.34,4.47.72,6.72.94.91.09,1.54.37,2.05,1.1,2.38,3.42,2.51,2.33-.34,5.24-.86.87-1.78,1.69-2.75,2.6,1.36,1.4,2.57,2.69,3.81,3.94.65.66.89,1.3.57,2.29-.85,2.7-1.57,5.45-2.3,8.19-.09.35-.1.89.1,1.13,1.49,1.79,3.04,3.53,4.69,5.41,1.71-1.94,3.33-3.73,4.89-5.58.19-.22.11-.77.02-1.12-.76-2.78-1.54-5.55-2.35-8.3-.22-.74-.2-1.26.41-1.85,1.34-1.27,2.57-2.65,3.88-4.04-1.38-1.39-2.73-2.8-4.15-4.16-.72-.69-.74-1.2-.18-2.08,1.18-1.87,2.61-2.81,4.95-2.9,2.73-.1,5.43-.82,8.51-1.33-4.44,12.61-8.85,25-15.84,36.59Z"/>
  <path class="st1" d="M93.7,161.25c-1.47-2.93-3.55-5.35-6.23-7.21-1.18-.82-2.43-1.52-3.7-2.3.11-.46.23-.89.32-1.33.31-1.58.42-3.27-.73-4.47-1.32-1.37-1.46-2.87-1.37-4.58.07-1.06.02-2.14.02-3.21v-11.34c-.58.22-1.03.39-1.48.55-3.17,1.14-6.37,2.21-9.51,3.44-2.27.89-4.02.24-5.72-1.33-1.59-1.46-3.33-2.77-5.02-4.15-1.75,1.43-3.48,2.7-5.04,4.16-1.87,1.73-3.86,2.22-6.19,1.16-.12-.06-.23-.1-.35-.14-3.36-1.19-6.72-2.38-10.21-3.62v1.95c.01,4.86.02,9.72,0,14.58,0,.43-.14,1-.44,1.27-1.82,1.66-2.22,3.72-1.64,5.97.26,1.03-.02,1.45-.89,1.92-3.69,1.96-6.64,4.7-8.54,8.47-1.04,2.06-.29,3.28,2,3.28,8.19.01,16.38,0,24.58-.01,1.93-.01,2.59-.8,2.15-2.64-.58-2.48-1.31-4.93-1.79-7.43-.18-.93-.15-2.21.35-2.92,1.31-1.83,1.41-3.1-.12-4.79-.22-.24-.47-.63-.42-.9.68-3.72,1.33-7.45,2.17-11.13.55-2.38,2.4-3.78,4.47-3.74,2,.04,3.81,1.61,4.3,3.95.74,3.5,1.4,7.02,2.02,10.54.07.41-.16,1-.45,1.33-1.22,1.37-1.52,3.32-.33,4.48,1.05,1.03.9,2.19.69,3.27-.45,2.38-1.15,4.71-1.73,7.07-.5,2.06.13,2.91,2.22,2.91,8.24.01,16.47.01,24.71,0,2.12-.01,2.85-1.18,1.9-3.06ZM50.74,153.08c-2.76-3.62-6.27-4.27-10.28-2.86-.37-1.37.27-2.72,1.67-3.61,2.05-1.3,5.01-1.08,6.93.44,1.75,1.4,2.75,4.18,1.68,6.03ZM80.1,150.07c-.67-.13-1.33-.26-2-.39-2.8-.53-5.2.13-7.14,2.3-.3.33-.78.49-1.17.73-.13-.44-.37-.89-.37-1.34-.03-2.35,1.5-4.46,3.75-5.27,2.37-.85,4.94-.29,6.28,1.5.47.63.67,1.47.99,2.21-.11.09-.23.17-.34.26Z"/>
  <path class="st0" d="M144.6,128.4c-2.71-6.13-5.34-12.3-7.94-18.48-.25-.6-.3-1.35-.23-2.01.12-1.26-.15-2.29-1.25-3-1.15-.74-2.26-.65-3.45.17-.34.23-.78.45-1.18.45-2.47.05-4.94-.01-7.41.07-1.14.04-2.07-.07-2.64-1.2-.32-.63-1.05-1.19-1.06-1.79-.09-4.28-.03-8.56-.04-12.84,0-.74.24-1.16.93-1.53,3.1-1.67,4.98-4.26,4.85-7.84-.07-2.09-.42-4.18-.21-6.29.03-.27-.09-.57-.16-.84-1.07-4.11-4.97-6.66-9.69-6.3-5.47.43-9.23,5.54-8.22,9.87.09.38,0,.82-.09,1.21-.88,3.55.25,7.07,3.25,9.16,1.41.99,3.11,1.57,4.81,2.4,0,4.32.03,8.88-.02,13.44-.01.97-2,2.5-3,2.5-2.51.01-5.02.03-7.53,0-.45,0-.96-.16-1.34-.41-1.12-.73-2.27-1.05-3.47-.31-1.14.7-1.4,1.81-1.29,3.11.06.65-.03,1.4-.28,2-2.64,6.29-5.36,12.56-7.99,18.86-.29.71-.43,1.63-.24,2.36,1.35,5.32,6.19,9.01,11.61,8.97,5.1-.05,9.79-3.93,11.01-9.19.13-.55.09-1.25-.13-1.77-2.35-5.62-4.76-11.21-7.14-16.81-.28-.67-.51-1.35-.81-2.17,3.02,0,5.86-.01,8.69.03.3,0,.65.27.88.51,1.92,2.04,4.79,2.07,6.78.08.29-.28.75-.54,1.14-.54,2.8-.05,5.59-.03,8.56-.03-.11.32-.17.51-.25.7-2.51,5.95-5.03,11.89-7.5,17.85-.26.61-.48,1.38-.34,1.98.87,3.47,2.84,6.22,5.98,7.96,6.27,3.46,14.09.2,16.53-6.79.43-1.24.42-2.3-.12-3.54ZM108.07,129.87h-14.22c2.35-5.47,4.69-10.92,7.14-16.64,2.4,5.65,4.71,11.07,7.08,16.64ZM115.94,84.81c-2.89,0-4.9-1.65-5.06-4.36,1.4-.3,2.89-.65,2.77-2.57-.1-1.57-1.33-1.91-2.57-2.15,0-2.53,2.24-4.48,5.03-4.45,2.78.03,4.96,2.25,4.65,4.36-2.23.64-2.84,1.23-2.75,2.65.09,1.29.74,1.78,2.8,2.12.37,2.54-2.54,4.4-4.87,4.4ZM126.46,129.92c2.35-5.51,4.67-10.96,7.11-16.67,2.46,5.67,4.83,11.11,7.24,16.67h-14.35Z"/>
  <path class="st4" d="M12.81,99.5h-.03c-8.99-1.53-11.92,4.36-12.51,5.82-.01.04-.03.08-.04.11-.05.14-.07.21-.07.21l.02.04c-.48,1.98-.01,3.98,1.37,5.86.16.22.28.51.3.77.24,3.24,1.97,5.38,4.62,6.52h0s.01.01.02.01c5.86,1,9.64-.88,11.64-3.81,3.6-5.81.99-13.64-5.32-15.53ZM13.79,113.83c-2.47,2.49-6.99,1.43-7.38-1.4,1.83-.79,2.67-1.74,2.3-2.8-.75-2.18-2.56-1.74-4.21-1.51-.48-2.18,1.23-4.33,3.74-4.78,2.68-.49,5.35.88,6.66,3.41,1.2,2.32.75,5.21-1.11,7.08Z"/>
  <path class="st2" d="M68.09,34.84c.28,1.28.8,2.38,2.1,2.33.57-.02,1.39-.78,1.59-1.38.43-1.29-.45-2.05-1.64-2.45,2.17-1.65,5.43-.49,6.88,1.35,1.96,2.51,1.78,5.72-.56,7.88-2.24,2.07-5.64,2.08-7.85.02-2.26-2.11-2.51-5.24-.51-7.75Z"/>
  <path class="st3" d="M44,34.61c.18,1.59.85,2.6,1.87,2.63.93.03,1.54-.51,1.78-1.4.32-1.2-.17-1.86-1.84-2.55,1.88-1.41,5.08-.75,6.85,1.41,1.99,2.42,1.74,5.83-.56,7.87-2.4,2.13-5.91,2.04-8.01-.15-2.22-2.31-2.24-6.05-.08-7.8Z"/>
</svg>